solid OpenSCAD_Model
  facet normal -2.22045e-16 0 -1
    outer loop
      vertex -6 0 1.33227e-15
      vertex 0 63 0
      vertex 0 0 0
    endloop
  endfacet
  facet normal -2.22045e-16 0 -1
    outer loop
      vertex 0 63 0
      vertex -6 0 1.33227e-15
      vertex -6 63 1.33227e-15
    endloop
  endfacet
  facet normal -1 0 0
    outer loop
      vertex -6 63 1.33227e-15
      vertex -6 61 2
      vertex -6 63 50
    endloop
  endfacet
  facet normal -1 0 0
    outer loop
      vertex -6 63 1.33227e-15
      vertex -6 2 2
      vertex -6 61 2
    endloop
  endfacet
  facet normal -1 0 0
    outer loop
      vertex -6 0 1.33227e-15
      vertex -6 2 2
      vertex -6 63 1.33227e-15
    endloop
  endfacet
  facet normal -1 0 0
    outer loop
      vertex -6 0 50
      vertex -6 2 2
      vertex -6 0 1.33227e-15
    endloop
  endfacet
  facet normal -1 0 0
    outer loop
      vertex -6 2 2
      vertex -6 0 50
      vertex -6 2 50
    endloop
  endfacet
  facet normal -1 -0 0
    outer loop
      vertex -6 63 50
      vertex -6 61 2
      vertex -6 61 50
    endloop
  endfacet
  facet normal 0 0 1
    outer loop
      vertex -5 2 50
      vertex -6 2 50
      vertex -5 1.2 50
    endloop
  endfacet
  facet normal 0 0 1
    outer loop
      vertex 1.11022e-14 63 50
      vertex -1 61 50
      vertex 1.11022e-14 0 50
    endloop
  endfacet
  facet normal 0 0 1
    outer loop
      vertex 1.11022e-14 63 50
      vertex -3 61.8 50
      vertex -1 61 50
    endloop
  endfacet
  facet normal -0 0 1
    outer loop
      vertex -6 63 50
      vertex -3 61.8 50
      vertex 1.11022e-14 63 50
    endloop
  endfacet
  facet normal 0 0 1
    outer loop
      vertex -3 61.8 50
      vertex -6 63 50
      vertex -5 61.8 50
    endloop
  endfacet
  facet normal 0 0 1
    outer loop
      vertex -6 61 50
      vertex -5 61.8 50
      vertex -6 63 50
    endloop
  endfacet
  facet normal 0 0 1
    outer loop
      vertex -5 61.8 50
      vertex -6 61 50
      vertex -5 61 50
    endloop
  endfacet
  facet normal -0 0 1
    outer loop
      vertex -1 2 50
      vertex 1.11022e-14 0 50
      vertex -1 61 50
    endloop
  endfacet
  facet normal 0 0 1
    outer loop
      vertex -3 1.2 50
      vertex -1 2 50
      vertex -3 2 50
    endloop
  endfacet
  facet normal 0 0 1
    outer loop
      vertex -1 2 50
      vertex -3 1.2 50
      vertex 1.11022e-14 0 50
    endloop
  endfacet
  facet normal 0 0 1
    outer loop
      vertex -6 0 50
      vertex -3 1.2 50
      vertex -5 1.2 50
    endloop
  endfacet
  facet normal 0 0 1
    outer loop
      vertex -3 1.2 50
      vertex -6 0 50
      vertex 1.11022e-14 0 50
    endloop
  endfacet
  facet normal 0 0 1
    outer loop
      vertex -6 0 50
      vertex -5 1.2 50
      vertex -6 2 50
    endloop
  endfacet
  facet normal 0 0 1
    outer loop
      vertex -1 61 50
      vertex -3 61.8 50
      vertex -3 61 50
    endloop
  endfacet
  facet normal 0 1 0
    outer loop
      vertex 1.11022e-14 63 50
      vertex -6 63 1.33227e-15
      vertex -6 63 50
    endloop
  endfacet
  facet normal -0 1 0
    outer loop
      vertex -6 63 1.33227e-15
      vertex 1.11022e-14 63 50
      vertex 0 63 0
    endloop
  endfacet
  facet normal 1 0 -2.22045e-16
    outer loop
      vertex 1.11022e-14 0 50
      vertex 0 63 0
      vertex 1.11022e-14 63 50
    endloop
  endfacet
  facet normal 1 0 -2.22045e-16
    outer loop
      vertex 0 63 0
      vertex 1.11022e-14 0 50
      vertex 0 0 0
    endloop
  endfacet
  facet normal 0 -1 0
    outer loop
      vertex -6 0 1.33227e-15
      vertex 1.11022e-14 0 50
      vertex -6 0 50
    endloop
  endfacet
  facet normal 0 -1 0
    outer loop
      vertex 1.11022e-14 0 50
      vertex -6 0 1.33227e-15
      vertex 0 0 0
    endloop
  endfacet
  facet normal -0 0 1
    outer loop
      vertex -6 61 2
      vertex -5 2 2
      vertex -5 61 2
    endloop
  endfacet
  facet normal 0 0 1
    outer loop
      vertex -5 2 2
      vertex -6 61 2
      vertex -6 2 2
    endloop
  endfacet
  facet normal -0 0 1
    outer loop
      vertex -3 61 2
      vertex -1 2 2
      vertex -1 61 2
    endloop
  endfacet
  facet normal 0 0 1
    outer loop
      vertex -1 2 2
      vertex -3 61 2
      vertex -3 2 2
    endloop
  endfacet
  facet normal 0 -1 0
    outer loop
      vertex -3 61 2
      vertex -1 61 50
      vertex -3 61 50
    endloop
  endfacet
  facet normal 0 -1 -0
    outer loop
      vertex -1 61 50
      vertex -3 61 2
      vertex -1 61 2
    endloop
  endfacet
  facet normal 0 -1 0
    outer loop
      vertex -6 61 2
      vertex -5 61 50
      vertex -6 61 50
    endloop
  endfacet
  facet normal 0 -1 -0
    outer loop
      vertex -5 61 50
      vertex -6 61 2
      vertex -5 61 2
    endloop
  endfacet
  facet normal -1 0 0
    outer loop
      vertex -1 2 2
      vertex -1 61 50
      vertex -1 61 2
    endloop
  endfacet
  facet normal -1 -0 0
    outer loop
      vertex -1 61 50
      vertex -1 2 2
      vertex -1 2 50
    endloop
  endfacet
  facet normal 0 1 -0
    outer loop
      vertex -5 2 2
      vertex -6 2 50
      vertex -5 2 50
    endloop
  endfacet
  facet normal 0 1 0
    outer loop
      vertex -6 2 50
      vertex -5 2 2
      vertex -6 2 2
    endloop
  endfacet
  facet normal 0 1 -0
    outer loop
      vertex -1 2 2
      vertex -3 2 50
      vertex -1 2 50
    endloop
  endfacet
  facet normal 0 1 0
    outer loop
      vertex -3 2 50
      vertex -1 2 2
      vertex -3 2 2
    endloop
  endfacet
  facet normal -0 0 1
    outer loop
      vertex -5 61.8 1.2
      vertex -3 1.2 1.2
      vertex -3 61.8 1.2
    endloop
  endfacet
  facet normal 0 0 1
    outer loop
      vertex -3 1.2 1.2
      vertex -5 61.8 1.2
      vertex -5 1.2 1.2
    endloop
  endfacet
  facet normal 1 0 0
    outer loop
      vertex -5 2 50
      vertex -5 1.2 50
      vertex -5 2 2
    endloop
  endfacet
  facet normal 1 0 0
    outer loop
      vertex -5 61 2
      vertex -5 61.8 50
      vertex -5 61 50
    endloop
  endfacet
  facet normal 1 0 0
    outer loop
      vertex -5 61.8 50
      vertex -5 61 2
      vertex -5 61.8 1.2
    endloop
  endfacet
  facet normal 1 -0 0
    outer loop
      vertex -5 2 2
      vertex -5 61.8 1.2
      vertex -5 61 2
    endloop
  endfacet
  facet normal 1 0 0
    outer loop
      vertex -5 2 2
      vertex -5 1.2 1.2
      vertex -5 61.8 1.2
    endloop
  endfacet
  facet normal 1 0 0
    outer loop
      vertex -5 1.2 1.2
      vertex -5 2 2
      vertex -5 1.2 50
    endloop
  endfacet
  facet normal -1 0 0
    outer loop
      vertex -3 61.8 1.2
      vertex -3 61 2
      vertex -3 61.8 50
    endloop
  endfacet
  facet normal -1 0 0
    outer loop
      vertex -3 61.8 1.2
      vertex -3 2 2
      vertex -3 61 2
    endloop
  endfacet
  facet normal -1 0 0
    outer loop
      vertex -3 1.2 1.2
      vertex -3 2 2
      vertex -3 61.8 1.2
    endloop
  endfacet
  facet normal -1 0 0
    outer loop
      vertex -3 1.2 50
      vertex -3 2 2
      vertex -3 1.2 1.2
    endloop
  endfacet
  facet normal -1 0 0
    outer loop
      vertex -3 2 2
      vertex -3 1.2 50
      vertex -3 2 50
    endloop
  endfacet
  facet normal -1 -0 0
    outer loop
      vertex -3 61.8 50
      vertex -3 61 2
      vertex -3 61 50
    endloop
  endfacet
  facet normal 0 1 -0
    outer loop
      vertex -3 1.2 1.2
      vertex -5 1.2 50
      vertex -3 1.2 50
    endloop
  endfacet
  facet normal 0 1 0
    outer loop
      vertex -5 1.2 50
      vertex -3 1.2 1.2
      vertex -5 1.2 1.2
    endloop
  endfacet
  facet normal 0 -1 0
    outer loop
      vertex -5 61.8 1.2
      vertex -3 61.8 50
      vertex -5 61.8 50
    endloop
  endfacet
  facet normal 0 -1 -0
    outer loop
      vertex -3 61.8 50
      vertex -5 61.8 1.2
      vertex -3 61.8 1.2
    endloop
  endfacet
endsolid OpenSCAD_Model
