M48
;DRILL file {KiCad 4.0.5+dfsg1-4} date Mon Sep  4 17:27:17 2017
;FORMAT={-:-/ absolute / inch / decimal}
FMAT,2
INCH,TZ
T1C0.031
T2C0.039
T3C0.039
T4C0.040
%
G90
G05
M72
T1
X5.5Y-2.55
X5.5Y-2.7469
T2
X4.9Y-3.025
X4.9Y-3.625
X5.Y-3.025
X5.Y-3.625
X5.Y-3.9
X5.Y-4.4
X5.1Y-3.025
X5.1Y-3.625
X5.1Y-3.9
X5.1Y-4.4
X5.2Y-3.025
X5.2Y-3.625
X5.2Y-3.9
X5.2Y-4.4
X5.3Y-3.025
X5.3Y-3.625
X5.3Y-3.9
X5.3Y-4.4
X5.4Y-3.025
X5.4Y-3.625
X5.4Y-3.9
X5.4Y-4.4
X5.5Y-3.025
X5.5Y-3.625
X5.6Y-3.025
X5.6Y-3.625
X5.7Y-3.025
X5.7Y-3.625
X5.8Y-3.025
X5.8Y-3.625
X5.9Y-3.025
X5.9Y-3.625
X6.Y-3.025
X6.Y-3.625
X6.1Y-3.025
X6.1Y-3.625
X6.2Y-3.025
X6.2Y-3.625
X6.3506Y-2.5
X6.3506Y-2.6
X6.3506Y-2.7
X6.3506Y-2.8
T3
X4.9579Y-2.575
X5.076Y-2.76
X5.1941Y-2.575
X5.8Y-3.85
X5.8Y-4.25
X5.925Y-3.75
X5.925Y-4.15
X6.1Y-3.85
X6.1Y-4.25
X6.25Y-3.75
X6.25Y-4.15
T4
X5.6Y-4.4
X5.7Y-4.4
X5.8Y-4.4
X5.9Y-4.4
X6.Y-4.4
X6.1Y-4.4
T0
M30
